<?xml version="1.0" encoding="UTF-8" standalone="no"?>
<svg
   xmlns:dc="http://purl.org/dc/elements/1.1/"
   xmlns:cc="http://creativecommons.org/ns#"
   xmlns:rdf="http://www.w3.org/1999/02/22-rdf-syntax-ns#"
   xmlns:svg="http://www.w3.org/2000/svg"
   xmlns="http://www.w3.org/2000/svg"
   version="1.1"
   id="svg2"
   width="393.75"
   height="175"
   viewBox="0 0 393.75 175">
  <metadata
     id="metadata22">
    <rdf:RDF>
      <cc:Work
         rdf:about="">
        <dc:format>image/svg+xml</dc:format>
        <dc:type
           rdf:resource="http://purl.org/dc/dcmitype/StillImage" />
      </cc:Work>
    </rdf:RDF>
  </metadata>
  <defs
     id="defs20" />
  <g
     style="font-family:Montserrat"
     id="g4">
    <g
       id="text6"
       style="font-weight:600;font-size:92.76000214px;fill:#006633"
       transform="matrix(1.13,0,0,1.25,-3.235,159.198)">
      <path
         id="path25"
         style=""
         d="m 38.773681,0.92760002 c 10.6674,0 19.75788,-3.80316012 25.78728,-10.85292022 l -7.79184,-7.4207998 c -4.73076,5.19456 -10.57464,7.6990798 -17.34612,7.6990798 -13.4502,0 -23.190001,-9.4615198 -23.190001,-22.8189608 0,-13.35744 9.739801,-22.81896 23.190001,-22.81896 6.77148,0 12.61536,2.50452 17.34612,7.60632 l 7.79184,-7.32804 c -6.0294,-7.04976 -15.11988,-10.852921 -25.69452,-10.852921 -19.943401,0 -34.7850009,14.006761 -34.7850009,33.393601 0,19.386841 14.8415999,33.39360102 34.6922409,33.39360102 z" />
      <path
         id="path27"
         style=""
         d="m 76.156063,0 28.384557,0 c 21.05652,0 35.43432,-12.9864 35.43432,-32.466001 0,-19.4796 -14.3778,-32.466 -35.43432,-32.466 l -28.384557,0 0,64.932001 z m 12.0588,-10.2036 0,-44.524801 15.769197,0 c 14.47056,0 23.83932,8.8122 23.83932,22.2624 0,13.450201 -9.36876,22.262401 -23.83932,22.262401 l -15.769197,0 z" />
      <path
         id="path29"
         style=""
         d="m 172.90486,0.92760002 c 17.80992,0 26.25108,-8.90496022 26.25108,-19.29408002 0,-23.839321 -38.4954,-14.841601 -38.4954,-28.662841 0,-4.91628 4.08144,-8.8122 14.09952,-8.8122 5.65836,0 12.0588,1.66968 17.90268,5.1018 l 3.80316,-9.36876 c -5.65836,-3.7104 -13.82124,-5.751121 -21.61308,-5.751121 -17.80992,0 -26.15832,8.904961 -26.15832,19.386841 0,24.1176 38.58816,14.93436 38.58816,28.941121 0,4.82352 -4.26696,8.4411598 -14.3778,8.4411598 -7.97736,0 -16.233,-2.9683198 -21.42756,-7.1425198 l -4.1742,9.3687598 c 5.38008,4.6380001 15.49092,7.79184022 25.60176,7.79184022 z" />
    </g>
    <g
       id="text10"
       style="font-weight:600;font-size:92.76000214px"
       transform="matrix(1.13,0,0,1.25,253.233,159.198)">
      <path
         id="path32"
         style=""
         d="m 0.74208002,-64.932001 0,10.11084 13.72847998,0 0,54.821161 12.058801,0 0,-64.932001 -25.78728098,0 z" />
      <path
         id="path34"
         style=""
         d="m 66.508974,0.92760002 c 15.490921,0 27.178681,-12.05880002 27.178681,-33.39360102 0,-21.3348 -11.68776,-33.393601 -27.178681,-33.393601 -15.39816,0 -27.08592,12.058801 -27.08592,33.393601 0,21.334801 11.68776,33.39360102 27.08592,33.39360102 z m 0,-10.48188022 c -8.8122,0 -14.93436,-7.2352798 -14.93436,-22.9117208 0,-15.67644 6.12216,-22.91172 14.93436,-22.91172 8.904961,0 15.027121,7.23528 15.027121,22.91172 0,15.676441 -6.12216,22.9117208 -15.027121,22.9117208 z" />
      <path
         id="path36"
         style=""
         d="m 97.954711,-64.932001 0,10.11084 13.728479,0 0,54.821161 12.0588,0 0,-64.932001 -25.787279,0 z" />
    </g>
    <g
       id="text14"
       style="font-weight:500;font-size:28px"
       transform="matrix(1.25,0,0,1.25,-1.015,72.542)">
      <path
         id="path39"
         style=""
         d="m 8.652,0.224 c 5.18,0 7.588,-2.576 7.588,-5.572 0,-7.196 -11.872,-4.2 -11.872,-8.988 0,-1.708 1.428,-3.108 4.76,-3.108 1.736,0 3.668,0.504 5.376,1.596 l 0.924,-2.24 c -1.624,-1.12 -4.004,-1.736 -6.3,-1.736 -5.152,0 -7.504,2.576 -7.504,5.6 0,7.28 11.872,4.256 11.872,9.044 0,1.708 -1.456,3.024 -4.844,3.024 -2.52,0 -5.012,-0.952 -6.468,-2.268 L 1.148,-2.24 c 1.568,1.456 4.508,2.464 7.504,2.464 z" />
      <path
         id="path41"
         style=""
         d="m 33.348,-7.336 c 0,-4.564 -3.052,-7.644 -7.336,-7.644 -4.284,0 -7.448,3.164 -7.448,7.56 0,4.424 3.192,7.588 7.98,7.588 2.464,0 4.508,-0.84 5.852,-2.408 l -1.484,-1.736 c -1.092,1.204 -2.548,1.792 -4.284,1.792 -2.94,0 -5.04,-1.736 -5.376,-4.34 l 12.04,0 c 0.028,-0.252 0.056,-0.588 0.056,-0.812 z m -7.336,-5.376 c 2.604,0 4.48,1.764 4.76,4.256 l -9.52,0 c 0.28,-2.52 2.184,-4.256 4.76,-4.256 z" />
      <path
         id="path43"
         style=""
         d="m 43.539998,0.168 c 2.66,0 4.872,-1.12 6.048,-3.192 l -2.044,-1.288 c -0.952,1.456 -2.408,2.128 -4.032,2.128 -2.912,0 -5.096,-2.016 -5.096,-5.236 0,-3.164 2.184,-5.208 5.096,-5.208 1.624,0 3.08,0.672 4.032,2.128 l 2.044,-1.316 c -1.176,-2.072 -3.388,-3.164 -6.048,-3.164 -4.564,0 -7.84,3.136 -7.84,7.56 0,4.424 3.276,7.588 7.84,7.588 z" />
      <path
         id="path45"
         style=""
         d="m 60.76,-2.8 c -0.56,0.448 -1.316,0.7 -2.1,0.7 -1.484,0 -2.324,-0.896 -2.324,-2.492 l 0,-8.036 4.256,0 0,-2.212 -4.256,0 0,-3.248 -2.688,0 0,3.248 -2.52,0 0,2.212 2.52,0 0,8.148 c 0,2.996 1.708,4.648 4.704,4.648 1.204,0 2.436,-0.336 3.248,-1.036 L 60.76,-2.8 Z" />
      <path
         id="path47"
         style=""
         d="m 66.191999,-17.696 c 1.064,0 1.82,-0.784 1.82,-1.792 0,-0.952 -0.784,-1.708 -1.82,-1.708 -1.036,0 -1.82,0.784 -1.82,1.764 0,0.98 0.784,1.736 1.82,1.736 z m -1.344,17.696 2.688,0 0,-14.84 -2.688,0 0,14.84 z" />
      <path
         id="path49"
         style=""
         d="m 79.016,0.168 c 4.452,0 7.7,-3.164 7.7,-7.588 0,-4.424 -3.248,-7.56 -7.7,-7.56 -4.452,0 -7.728,3.136 -7.728,7.56 0,4.424 3.276,7.588 7.728,7.588 z m 0,-2.352 c -2.856,0 -5.012,-2.072 -5.012,-5.236 0,-3.164 2.156,-5.208 5.012,-5.208 2.856,0 4.984,2.044 4.984,5.208 0,3.164 -2.128,5.236 -4.984,5.236 z" />
      <path
         id="path51"
         style=""
         d="m 98.363998,-14.98 c -2.352,0 -4.256,0.868 -5.348,2.38 l 0,-2.24 -2.576,0 0,14.84 2.688,0 0,-7.644 c 0,-3.22 1.848,-4.928 4.704,-4.928 2.548002,0 4.004002,1.428 4.004002,4.34 l 0,8.232 2.688,0 0,-8.54 c 0,-4.368 -2.548,-6.44 -6.160002,-6.44 z" />
      <path
         id="path53"
         style=""
         d="m 132.076,0 2.94,0 -8.904,-19.6 -2.772,0 -8.876,19.6 2.884,0 2.156,-4.9 10.416,0 2.156,4.9 z m -11.592,-7.14 4.228,-9.604 4.228,9.604 -8.456,0 z" />
      <path
         id="path55"
         style=""
         d="m 142.52,0.224 c 4.564,0 7.98,-3.64 7.98,-10.024 0,-6.384 -3.416,-10.024 -7.98,-10.024 -4.592,0 -8.008,3.64 -8.008,10.024 0,6.384 3.416,10.024 8.008,10.024 z m 0,-2.492 c -3.08,0 -5.208,-2.52 -5.208,-7.532 0,-5.012 2.128,-7.532 5.208,-7.532 3.052,0 5.18,2.52 5.18,7.532 0,5.012 -2.128,7.532 -5.18,7.532 z" />
      <path
         id="path57"
         style=""
         d="m 152.06799,-19.6 0,2.436 4.424,0 0,17.164 2.772,0 0,-19.6 -7.196,0 z" />
    </g>
  </g>
</svg>
