<?xml version="1.0" encoding="UTF-8"?><svg width="178.8pt" height="178.8pt" version="1.1" viewBox="0 0 178.796158 178.796158" xmlns="http://www.w3.org/2000/svg"><defs><clipPath id="a"><path d="m160 147h18.797v25h-18.797z"/></clipPath></defs><path d="m31.219 100.1c9.6094 0 17.781-3.7969 23.219-10.844l-7.0156-7.4219c-4.2656 5.1875-9.5156 7.7031-15.609 7.7031-12.109 0-20.875-9.4688-20.875-22.828 0-13.359 8.7656-22.812 20.875-22.812 6.0938 0 11.344 2.5 15.609 7.5938l7.0156-7.3281c-5.4375-7.0469-13.609-10.844-23.125-10.844-17.953 0-31.312 14-31.312 33.391 0 19.391 13.359 33.391 31.219 33.391z" fill="#006532"/><path d="m64.863 99.18h25.547c18.953 0 31.891-12.984 31.891-32.469 0-19.484-12.938-32.469-31.891-32.469h-25.547zm10.859-10.203v-44.531h14.188c13.031 0 21.453 8.8125 21.453 22.266 0 13.453-8.4219 22.266-21.453 22.266z" fill="#006532"/><path d="m151.95 100.1c16.031 0 23.625-8.9062 23.625-19.297 0-23.828-34.656-14.828-34.656-28.656 0-4.9219 3.6719-8.8125 12.703-8.8125 5.0781 0 10.844 1.6719 16.109 5.0938l3.4219-9.3594c-5.0938-3.7188-12.438-5.75-19.453-5.75-16.031 0-23.547 8.9062-23.547 19.391 0 24.109 34.734 14.922 34.734 28.938 0 4.8281-3.8438 8.4375-12.938 8.4375-7.1875 0-14.609-2.9688-19.297-7.1406l-3.75 9.375c4.8438 4.6406 13.938 7.7812 23.047 7.7812z" fill="#006532"/><path d="m12.688 27.316c5.1719 0 7.5781-2.5781 7.5781-5.5625 0-7.2031-11.859-4.2031-11.859-9 0-1.7031 1.4219-3.0938 4.75-3.0938 1.7344 0 3.6719 0.5 5.375 1.5938l0.92188-2.25c-1.625-1.1094-4-1.7344-6.2969-1.7344-5.1562 0-7.5 2.5781-7.5 5.6094 0 7.2812 11.875 4.25 11.875 9.0312 0 1.7188-1.4531 3.0312-4.8438 3.0312-2.5312 0-5.0156-0.95312-6.4688-2.2656l-1.0469 2.1875c1.5781 1.4531 4.5156 2.4531 7.5156 2.4531z"/><path d="m37.375 19.754c0-4.5625-3.0469-7.6406-7.3281-7.6406s-7.4531 3.1719-7.4531 7.5625c0 4.4219 3.2031 7.5938 7.9844 7.5938 2.4688 0 4.5-0.84375 5.8594-2.4062l-1.4844-1.7344c-1.0938 1.2031-2.5625 1.7812-4.2969 1.7812-2.9375 0-5.0312-1.7344-5.375-4.3438h12.047c0.03125-0.25 0.046875-0.57812 0.046875-0.8125zm-7.3281-5.375c2.6094 0 4.4844 1.7656 4.7656 4.2656h-9.5312c0.28125-2.5156 2.1875-4.2656 4.7656-4.2656z"/><path d="m47.574 27.27c2.6562 0 4.875-1.125 6.0469-3.2031l-2.0469-1.2812c-0.95312 1.4531-2.4062 2.125-4.0312 2.125-2.9062 0-5.0938-2.0156-5.0938-5.2344 0-3.1562 2.1875-5.2031 5.0938-5.2031 1.625 0 3.0781 0.67188 4.0312 2.125l2.0469-1.3125c-1.1719-2.0781-3.3906-3.1719-6.0469-3.1719-4.5625 0-7.8438 3.1406-7.8438 7.5625s3.2812 7.5938 7.8438 7.5938z"/><path d="m64.789 24.301c-0.5625 0.4375-1.3125 0.70312-2.0938 0.70312-1.4844 0-2.3281-0.90625-2.3281-2.5v-8.0312h4.2656v-2.2188h-4.2656v-3.25h-2.6875v3.25h-2.5156v2.2188h2.5156v8.1406c0 3 1.7031 4.6562 4.7031 4.6562 1.2031 0 2.4375-0.34375 3.25-1.0469z"/><path d="m70.223 9.3945c1.0625 0 1.8281-0.78125 1.8281-1.7812 0-0.95312-0.79688-1.7188-1.8281-1.7188s-1.8125 0.79688-1.8125 1.7656c0 0.98438 0.78125 1.7344 1.8125 1.7344zm-1.3438 17.703h2.6875v-14.844h-2.6875z"/><path d="m83.051 27.27c4.4531 0 7.7031-3.1719 7.7031-7.5938s-3.25-7.5625-7.7031-7.5625-7.7344 3.1406-7.7344 7.5625 3.2812 7.5938 7.7344 7.5938zm0-2.3594c-2.8594 0-5.0156-2.0625-5.0156-5.2344 0-3.1562 2.1562-5.2031 5.0156-5.2031s4.9844 2.0469 4.9844 5.2031c0 3.1719-2.125 5.2344-4.9844 5.2344z"/><path d="m102.39 12.113c-2.3438 0-4.25 0.875-5.3438 2.3906v-2.25h-2.5781v14.844h2.6875v-7.6406c0-3.2188 1.8438-4.9375 4.7031-4.9375 2.5469 0 4 1.4375 4 4.3438v8.2344h2.6875v-8.5469c0-4.3594-2.5469-6.4375-6.1562-6.4375z"/><path d="m136.12 27.098h2.9531l-8.9062-19.594h-2.7812l-8.875 19.594h2.8906l2.1562-4.9062h10.406zm-11.594-7.1406l4.2344-9.6094 4.2344 9.6094z"/><path d="m148.19 27.316c4.5625 0 7.9688-3.6406 7.9688-10.016 0-6.3906-3.4062-10.031-7.9688-10.031-4.5938 0-8.0156 3.6406-8.0156 10.031 0 6.375 3.4219 10.016 8.0156 10.016zm0-2.4844c-3.0938 0-5.2188-2.5156-5.2188-7.5312s2.125-7.5312 5.2188-7.5312c3.0469 0 5.1719 2.5156 5.1719 7.5312s-2.125 7.5312-5.1719 7.5312z"/><path d="m157.64 7.5039v2.4219h4.4219v17.172h2.7812v-19.594z"/><path d="m10.605 107.03v10.109h12.359v54.828h10.844v-64.938z"/><path d="m69.785 172.89c13.953 0 24.469-12.047 24.469-33.391 0-21.328-10.516-33.391-24.469-33.391-13.859 0-24.375 12.062-24.375 33.391 0 21.344 10.516 33.391 24.375 33.391zm0-10.484c-7.9219 0-13.438-7.2344-13.438-22.906s5.5156-22.906 13.438-22.906c8.0156 0 13.531 7.2344 13.531 22.906s-5.5156 22.906-13.531 22.906z"/><path d="m98.176 107.03v10.109h12.359v54.828h10.844v-64.938z"/><path d="m145.62 108.22v4.9375c-1.2812-0.57031-2.5312-1.0039-3.75-1.2969-1.2188-0.28906-2.3711-0.4375-3.4531-0.4375-1.4375 0-2.5 0.19922-3.1875 0.59375-0.6875 0.39844-1.0312 1.0117-1.0312 1.8438 0 0.625 0.22656 1.1172 0.6875 1.4688 0.46875 0.34375 1.3125 0.64062 2.5312 0.89062l2.5625 0.51562c2.5938 0.52344 4.4375 1.3125 5.5312 2.375s1.6406 2.5742 1.6406 4.5312c0 2.5742-0.76562 4.4922-2.2969 5.75-1.5234 1.25-3.8516 1.875-6.9844 1.875-1.4805 0-2.9648-0.14062-4.4531-0.42188-1.4922-0.28125-2.9805-0.69531-4.4688-1.25v-5.0781c1.4883 0.79297 2.9258 1.3906 4.3125 1.7969 1.3945 0.39844 2.7383 0.59375 4.0312 0.59375 1.3125 0 2.3164-0.21875 3.0156-0.65625 0.69531-0.4375 1.0469-1.0625 1.0469-1.875 0-0.72656-0.24219-1.2891-0.71875-1.6875-0.46875-0.39453-1.4141-0.75-2.8281-1.0625l-2.3281-0.51562c-2.3359-0.5-4.043-1.2969-5.125-2.3906-1.0742-1.0938-1.6094-2.5664-1.6094-4.4219 0-2.3203 0.75-4.1094 2.25-5.3594s3.6562-1.875 6.4688-1.875c1.2812 0 2.5977 0.10156 3.9531 0.29688 1.3516 0.1875 2.7539 0.47656 4.2031 0.85938z" fill="#f26f20"/><path d="m152.45 107.48h6.0156v13.984c0 1.9297 0.3125 3.3086 0.9375 4.1406 0.63281 0.82422 1.6641 1.2344 3.0938 1.2344 1.4375 0 2.4688-0.41016 3.0938-1.2344 0.63281-0.83203 0.95312-2.2109 0.95312-4.1406v-13.984h6.0156v13.984c0 3.3047-0.82812 5.7617-2.4844 7.375-1.6562 1.6172-4.1836 2.4219-7.5781 2.4219-3.3867 0-5.9062-0.80469-7.5625-2.4219-1.6562-1.6133-2.4844-4.0703-2.4844-7.375z" fill="#f26f20"/><path d="m129.5 147.48h3.7031v8.6719h-3.7031z" fill="#f26f20"/><path d="m140.02 166.66h5.3125v-15.078l-5.4531 1.125v-4.0938l5.4219-1.125h5.7188v19.172h5.3125v4.1562h-16.312z" fill="#f26f20"/><g clip-path="url(#a)"><path d="m169.66 160.38c-1.125 0-1.9922 0.30859-2.5938 0.92188-0.60547 0.61719-0.90625 1.4961-0.90625 2.6406 0 1.1484 0.30078 2.0273 0.90625 2.6406 0.60156 0.60547 1.4688 0.90625 2.5938 0.90625 1.1133 0 1.9688-0.30078 2.5625-0.90625 0.59375-0.61328 0.89062-1.4922 0.89062-2.6406 0-1.1562-0.29688-2.0352-0.89062-2.6406-0.59375-0.61328-1.4492-0.92188-2.5625-0.92188zm-4.3906-1.9844c-1.418-0.42578-2.4844-1.082-3.2031-1.9688-0.71875-0.88281-1.0781-1.9883-1.0781-3.3125 0-1.9688 0.73438-3.4688 2.2031-4.5s3.625-1.5469 6.4688-1.5469c2.8203 0 4.9688 0.51562 6.4375 1.5469 1.4688 1.0234 2.2031 2.5234 2.2031 4.5 0 1.3242-0.36719 2.4297-1.0938 3.3125-0.71875 0.88672-1.7891 1.543-3.2031 1.9688 1.582 0.4375 2.7734 1.1523 3.5781 2.1406 0.8125 0.98047 1.2188 2.2188 1.2188 3.7188 0 2.3125-0.77344 4.0625-2.3125 5.25-1.5312 1.1797-3.8086 1.7656-6.8281 1.7656-3.0312 0-5.3242-0.58594-6.875-1.7656-1.543-1.1875-2.3125-2.9375-2.3125-5.25 0-1.5 0.39844-2.7383 1.2031-3.7188 0.8125-0.98828 2.0078-1.7031 3.5938-2.1406zm1.4062-4.6719c0 0.92969 0.25391 1.6406 0.76562 2.1406 0.51953 0.5 1.2578 0.75 2.2188 0.75 0.9375 0 1.6602-0.25 2.1719-0.75 0.50781-0.5 0.76562-1.2109 0.76562-2.1406 0-0.92578-0.25781-1.6328-0.76562-2.125-0.51172-0.5-1.2344-0.75-2.1719-0.75-0.96094 0-1.6992 0.25-2.2188 0.75-0.51172 0.5-0.76562 1.2109-0.76562 2.125z" fill="#f26f20"/></g></svg>
